HIERARCHY
ROOT joint_0
{
	OFFSET 0.000000 0.000000 0.000000
	CHANNELS 6 Xposition Yposition Zposition Zrotation Yrotation Xrotation 
	JOINT joint_1
	{
		OFFSET 5.091736 1.614004 124.993042
		CHANNELS 3 Zrotation Yrotation Xrotation
		JOINT joint_2
		{
			OFFSET -7.754517 4.363039 113.797974
			CHANNELS 3 Zrotation Yrotation Xrotation
			JOINT joint_3
			{
				OFFSET -8.706238 5.370684 113.558960
				CHANNELS 3 Zrotation Yrotation Xrotation
				JOINT joint_4
				{
					OFFSET 2.800659 5.843341 158.209106
					CHANNELS 3 Zrotation Yrotation Xrotation
					JOINT joint_5
					{
						OFFSET 20.525452 8.617594 92.185913
						CHANNELS 3 Zrotation Yrotation Xrotation
						End Site
						{
							OFFSET 0.000000 0.000000 0.000000
						}
					}
				}
				JOINT joint_6
				{
					OFFSET -4.183167 -30.671114 90.057007
					CHANNELS 3 Zrotation Yrotation Xrotation
					JOINT joint_7
					{
						OFFSET -24.729675 -138.200195 -6.097900
						CHANNELS 3 Zrotation Yrotation Xrotation
						JOINT joint_8
						{
							OFFSET 16.966858 -51.567780 -315.633057
							CHANNELS 3 Zrotation Yrotation Xrotation
							JOINT joint_9
							{
								OFFSET 129.835388 -40.459091 176.646973
								CHANNELS 3 Zrotation Yrotation Xrotation
								End Site
								{
									OFFSET 0.000000 0.000000 0.000000
								}
							}
						}
					}
				}
				JOINT joint_10
				{
					OFFSET 7.338745 37.199406 87.346069
					CHANNELS 3 Zrotation Yrotation Xrotation
					JOINT joint_11
					{
						OFFSET 20.327698 137.488367 -20.779053
						CHANNELS 3 Zrotation Yrotation Xrotation
						JOINT joint_12
						{
							OFFSET 150.763062 48.206573 -278.419922
							CHANNELS 3 Zrotation Yrotation Xrotation
							JOINT joint_13
							{
								OFFSET 12.571289 -162.355251 152.253906
								CHANNELS 3 Zrotation Yrotation Xrotation
								End Site
								{
									OFFSET 0.000000 0.000000 0.000000
								}
							}
						}
					}
				}
			}
		}
	}
	JOINT joint_14
	{
		OFFSET -7.600342 -77.970001 -95.010986
		CHANNELS 3 Zrotation Yrotation Xrotation
		JOINT joint_15
		{
			OFFSET -2.666199 -21.455009 -443.700989
			CHANNELS 3 Zrotation Yrotation Xrotation
			JOINT joint_16
			{
				OFFSET -22.487976 -19.310196 -481.059006
				CHANNELS 3 Zrotation Yrotation Xrotation
				JOINT joint_17
				{
					OFFSET 177.776611 65.723053 -82.445997
					CHANNELS 3 Zrotation Yrotation Xrotation
					End Site
					{
						OFFSET 0.000000 0.000000 0.000000
					}
				}
			}
		}
	}
	JOINT joint_18
	{
		OFFSET 17.063904 75.900681 -95.447021
		CHANNELS 3 Zrotation Yrotation Xrotation
		JOINT joint_19
		{
			OFFSET -21.510803 8.101997 -443.629944
			CHANNELS 3 Zrotation Yrotation Xrotation
			JOINT joint_20
			{
				OFFSET -7.473022 -28.501774 -481.230011
				CHANNELS 3 Zrotation Yrotation Xrotation
				JOINT joint_21
				{
					OFFSET 177.760559 -64.115177 -83.737001
					CHANNELS 3 Zrotation Yrotation Xrotation
					End Site
					{
						OFFSET 0.000000 0.000000 0.000000
					}
				}
			}
		}
	}
}
MOTION
Frames: 5
Frame Time: 0.016667
1375.218506 -7.157427 1122.277954 16.698449 6.406229 1.969429 0.338536 5.079627 4.047251 0.590031 -0.440123 -0.720542 0.642691 1.182247 0.690711 -1.071954 0.591093 3.516563 0.000000 0.000000 0.000000 1.873161 -5.153001 5.155073 10.354856 -0.202128 -5.608006 177.262147 39.259726 176.183395 0.000000 0.000000 0.000000 -8.495437 16.301138 -4.278717 -23.054555 2.737461 5.713711 43.148234 -22.738337 117.195149 0.000000 0.000000 0.000000 -7.535223 -6.287898 -3.094955 -7.779496 -0.923028 0.138682 -7.629533 -0.927884 -3.182542 0.000000 0.000000 0.000000 -7.138742 -11.026161 2.072221 -7.014760 3.012657 2.631482 -6.675727 -1.304892 -3.575787 0.000000 0.000000 0.000000 
1373.926025 -7.051001 1122.293945 16.590657 6.700316 1.993244 0.333220 5.169174 4.045668 0.597673 -0.450605 -0.719570 0.649139 1.201211 0.691800 -1.083613 0.654594 3.489158 0.000000 0.000000 0.000000 1.857928 -5.362742 5.202554 10.375491 -0.264706 -5.726332 177.156081 39.257066 176.094418 0.000000 0.000000 0.000000 -8.539125 16.235556 -4.339287 -23.202068 2.615918 5.849358 42.920874 -22.795209 117.281069 0.000000 0.000000 0.000000 -7.477035 -6.711827 -3.106408 -7.743948 -0.904484 0.135047 -7.596088 -0.834540 -3.201112 0.000000 0.000000 0.000000 -7.106128 -11.348152 2.094118 -6.984531 2.885289 2.604154 -6.659989 -1.192637 -3.527088 0.000000 0.000000 0.000000 
1372.664917 -6.936895 1122.302979 16.481712 6.988353 2.016427 0.324772 5.260575 4.040547 0.602373 -0.461419 -0.717862 0.652473 1.220814 0.693160 -1.095812 0.723211 3.458904 0.000000 0.000000 0.000000 1.845854 -5.578415 5.251960 10.405214 -0.328806 -5.848633 177.054730 39.248025 176.000064 0.000000 0.000000 0.000000 -8.588675 16.171441 -4.400075 -23.351005 2.488844 5.990217 42.707718 -22.843579 117.366712 0.000000 0.000000 0.000000 -7.420449 -7.123798 -3.118253 -7.709174 -0.891527 0.132688 -7.563473 -0.746672 -3.217989 0.000000 0.000000 0.000000 -7.072262 -11.658620 2.114688 -6.953864 2.753106 2.578895 -6.643813 -1.082270 -3.478871 0.000000 0.000000 0.000000 
1371.475220 -6.813731 1122.306030 16.374190 7.260186 2.037530 0.314474 5.347374 4.031044 0.604724 -0.471409 -0.714284 0.653206 1.237957 0.692580 -1.108391 0.788667 3.430802 0.000000 0.000000 0.000000 1.836873 -5.790449 5.300192 10.436029 -0.396534 -5.963223 176.958012 39.232014 175.912299 0.000000 0.000000 0.000000 -8.639633 16.111249 -4.458847 -23.496777 2.358252 6.131461 42.521025 -22.878578 117.447567 0.000000 0.000000 0.000000 -7.365739 -7.513015 -3.130905 -7.675125 -0.878151 0.131695 -7.531322 -0.667214 -3.231949 0.000000 0.000000 0.000000 -7.038962 -11.947192 2.137553 -6.923783 2.621166 2.549735 -6.627838 -0.978039 -3.433009 0.000000 0.000000 0.000000 
1370.379272 -6.682644 1122.301025 16.269129 7.510722 2.056081 0.303121 5.425780 4.016520 0.604989 -0.480350 -0.709839 0.651808 1.252574 0.691556 -1.120918 0.845412 3.406671 0.000000 0.000000 0.000000 1.831732 -5.995187 5.344316 10.458819 -0.470880 -6.062588 176.861753 39.206403 175.839312 0.000000 0.000000 0.000000 -8.692500 16.055741 -4.516200 -23.636626 2.225522 6.273027 42.366172 -22.896133 117.520980 0.000000 0.000000 0.000000 -7.312864 -7.874578 -3.145566 -7.641640 -0.859841 0.133066 -7.499135 -0.600746 -3.241084 0.000000 0.000000 0.000000 -7.006865 -12.208008 2.165856 -6.894380 2.490654 2.511043 -6.612115 -0.881995 -3.390293 0.000000 0.000000 0.000000 
